# Blender v2.78 (sub 0) OBJ File: 'pyramid1.blend'
# www.blender.org
mtllib pyramid1.mtl
o Cube_Cube.001
v -1.000000 -0.200001 1.000000
v -1.000000 0.200001 1.000000
v -1.000000 -0.200001 -1.000000
v -1.000000 0.200001 -1.000000
v 1.000000 -0.200001 1.000000
v 1.000000 0.200001 1.000000
v 1.000000 -0.200001 -1.000000
v 1.000000 0.200001 -1.000000
v 0.000000 -0.200001 -1.000000
v 0.000000 0.200001 -1.000000
v 0.000000 -0.200001 1.000000
v 0.000000 0.200001 1.000000
v -1.000000 -0.200001 0.000000
v -1.000000 0.200001 0.000000
v 1.000000 -0.200001 0.000000
v 1.000000 0.200001 0.000000
v 0.015543 1.298289 0.054075
v 0.000000 -0.200001 0.000000
v -1.000000 -0.200001 0.506902
v 1.000000 0.200001 0.506902
v 0.007664 0.741565 0.533566
v 0.000000 -0.200001 0.506902
v -1.000000 0.200001 0.506902
v 1.000000 -0.200001 0.506902
v -0.496414 -0.200001 -1.000000
v -0.496414 0.200001 1.000000
v -0.496414 0.200001 -1.000000
v -0.496414 -0.200001 1.000000
v -0.496414 -0.200001 0.000000
v -0.488586 0.753084 0.027231
v -0.496414 -0.200001 0.506902
v -0.492554 0.472725 0.520329
v -1.000000 0.200001 -0.516412
v 1.000000 -0.200001 -0.516412
v -1.000000 -0.200001 -0.516412
v 1.000000 0.200001 -0.516412
v 0.007516 0.731120 -0.490262
v 0.000000 -0.200001 -0.516412
v -0.492629 0.467465 -0.503243
v -0.496414 -0.200001 -0.516412
v 0.525434 0.200001 -1.000000
v 0.525434 -0.200001 1.000000
v 0.525434 -0.200001 -1.000000
v 0.525434 0.200001 1.000000
v 0.532811 0.721211 0.025662
v 0.525434 -0.200001 0.000000
v 0.529072 0.457009 0.519555
v 0.525434 -0.200001 0.506902
v 0.525434 -0.200001 -0.516412
v 0.529001 0.452052 -0.504002
vn -1.0000 0.0000 0.0000
vn 0.0000 0.0000 -1.0000
vn 1.0000 0.0000 0.0000
vn 0.0000 0.0000 1.0000
vn 0.0000 -1.0000 0.0000
vn -0.2547 0.9314 0.2601
vn 0.2112 0.7459 0.6316
vn 0.5284 0.6670 -0.5252
vn -0.6087 0.7660 -0.2066
vn 0.5493 0.6355 0.5425
vn -0.6207 0.7555 0.2094
vn -0.5410 0.6407 0.5448
vn -0.5202 0.6719 -0.5272
vn -0.2087 0.7425 0.6365
vn -0.1956 0.7693 -0.6082
vn -0.2443 0.9358 -0.2544
vn 0.1980 0.7723 -0.6036
vn 0.2469 0.9383 -0.2423
vn 0.6304 0.7500 0.2004
vn 0.6186 0.7603 -0.1979
vn 0.2572 0.9341 0.2476
usemtl None
s off
f 35//1 33//1 4//1 3//1
f 43//2 41//2 8//2 7//2
f 24//3 20//3 6//3 5//3
f 28//4 26//4 2//4 1//4
f 48//5 24//5 5//5 42//5
f 32//6 23//6 2//6 26//6
f 47//7 21//7 12//7 44//7
f 31//5 22//5 11//5 28//5
f 42//4 44//4 12//4 11//4
f 25//2 27//2 10//2 9//2
f 40//5 38//5 18//5 29//5
f 50//8 37//8 17//8 45//8
f 39//9 33//9 14//9 30//9
f 49//5 34//5 15//5 46//5
f 34//3 36//3 16//3 15//3
f 19//1 23//1 14//1 13//1
f 1//1 2//1 23//1 19//1
f 29//5 18//5 22//5 31//5
f 45//10 17//10 21//10 47//10
f 30//11 14//11 23//11 32//11
f 46//5 15//5 24//5 48//5
f 15//3 16//3 20//3 24//3
f 17//12 30//12 32//12 21//12
f 13//5 29//5 31//5 19//5
f 37//13 39//13 30//13 17//13
f 35//5 40//5 29//5 13//5
f 3//2 4//2 27//2 25//2
f 19//5 31//5 28//5 1//5
f 21//14 32//14 26//14 12//14
f 11//4 12//4 26//4 28//4
f 3//5 25//5 40//5 35//5
f 10//15 27//15 39//15 37//15
f 7//3 8//3 36//3 34//3
f 43//5 7//5 34//5 49//5
f 27//16 4//16 33//16 39//16
f 41//17 10//17 37//17 50//17
f 25//5 9//5 38//5 40//5
f 13//1 14//1 33//1 35//1
f 8//18 41//18 50//18 36//18
f 9//5 43//5 49//5 38//5
f 18//5 46//5 48//5 22//5
f 16//19 45//19 47//19 20//19
f 38//5 49//5 46//5 18//5
f 36//20 50//20 45//20 16//20
f 5//4 6//4 44//4 42//4
f 20//21 47//21 44//21 6//21
f 22//5 48//5 42//5 11//5
f 9//2 10//2 41//2 43//2
